<svg style="height: 512px; width: 512px;" xmlns="http://www.w3.org/2000/svg" viewBox="0 0 512 512"><path d="M0 0h512v512H0z" fill="url(#pattern)" fillOpacity="1"></path><g class="" style="" transform="translate(0,0)"><g><path d="M450.16900634765625 181.35400390625L379.68499755859375 84.29000091552734L265.6289978027344 47.32500076293945L265.6289978027344 139.9770050048828L362.01300048828125 210.00799560546875Z" class="selected" fill="#fff" fillOpacity="1"></path><path d="M358.7090148925781 152.93800354003906C358.125 155.3070068359375 357.1059875488281 157.5469970703125 355.7049865722656 159.54400634765625C352.9119873046875 163.4499969482422 348.56201171875 165.95199584960938 343.781005859375 166.4010009765625C338.7489929199219 167.01300048828125 333.5060119628906 165.3280029296875 328.052001953125 161.34500122070312C322.5989990234375 157.36199951171875 319.39898681640625 152.88299560546875 318.4530029296875 147.906005859375C317.4410095214844 143.22300720214844 318.5069885253906 138.3300018310547 321.375 134.49200439453125C322.85198974609375 132.552001953125 324.67498779296875 130.90199279785156 326.75299072265625 129.62600708007812C329.03399658203125 128.15499877929688 332.0429992675781 127.63099670410156 335.77899169921875 128.052001953125C334.2200012207031 124.81400299072266 333.6239929199219 121.1969985961914 334.06201171875 117.63099670410156C334.54901123046875 114.0739974975586 335.9360046386719 110.69999694824219 338.0920104980469 107.8290023803711C341.2900085449219 103.3290023803711 346.2669982910156 100.41899871826172 351.75799560546875 99.83899688720703C357.51300048828125 99.0999984741211 363.44000244140625 100.95700073242188 369.5369873046875 105.40899658203125C375.6340026855469 109.86000061035156 379.07598876953125 114.84400177001953 379.8630065917969 120.36100006103516C380.70599365234375 125.73799896240234 379.3240051269531 131.2270050048828 376.0360107421875 135.56500244140625C373.9549865722656 138.4969940185547 371.14898681640625 140.83900451660156 367.8909912109375 142.36199951171875C364.7170104980469 143.84100341796875 361.1510009765625 144.25900268554688 357.72100830078125 143.5540008544922C359.0799865722656 147.19500732421875 359.40899658203125 150.322998046875 358.7099914550781 152.93800354003906Z" class="" fill="#fff" fillOpacity="1"></path><path d="M347.9779968261719 144.6510009765625C348.2650146484375 146.86099243164062 347.64599609375 149.093994140625 346.260986328125 150.83999633789062C344.114013671875 153.5290069580078 340.6109924316406 154.74099731445312 337.260986328125 153.9530029296875C333.9110107421875 153.16600036621094 331.31500244140625 150.5189971923828 330.5920104980469 147.15499877929688C330.3450012207031 144.86199951171875 331.0329895019531 142.56700134277344 332.5 140.78799438476562C333.72900390625 138.9320068359375 335.6470031738281 137.6439971923828 337.8299865722656 137.2100067138672C340.1419982910156 136.8780059814453 342.4859924316406 137.54100036621094 344.281005859375 139.03500366210938C346.2720031738281 140.29600524902344 347.635986328125 142.34100341796875 348.0379943847656 144.66299438476562Z" class="" fill="#fff" fillOpacity="1"></path><path d="M357.51800537109375 132.88099670410156C352.13800048828125 133.38400268554688 347.2239990234375 129.80799865722656 346.0459899902344 124.53500366210938C345.6809997558594 122.06199645996094 346.5150146484375 119.43099975585938 348.54998779296875 116.64099884033203C350.05999755859375 114.24299621582031 352.447998046875 112.53099822998047 355.2040100097656 111.87100219726562C360.635009765625 111.33699798583984 365.6029968261719 114.96499633789062 366.74700927734375 120.3010025024414C366.9670104980469 123.11499786376953 366.08099365234375 125.90399932861328 364.27801513671875 128.0760040283203C362.31500244140625 130.875 360.09698486328125 132.4770050048828 357.625 132.8820037841797Z" class="" fill="#fff" fillOpacity="1"></path><path d="M246.5500030517578 139.9770050048828L246.5500030517578 47.32500076293945L132.49400329589844 84.29000091552734L62.0099983215332 181.35400390625L150.16600036621094 209.9720001220703Z" class="" fill="#fff" fillOpacity="1"></path><path d="M133.88999938964844 118.17900085449219L171.78500366210938 91.65899658203125C174.3679962158203 95.46399688720703 176.09300231933594 99.78500366210938 176.84100341796875 104.322998046875C177.87399291992188 109.09300231933594 176.94400024414062 115.56400299072266 174.05099487304688 123.73600006103516C172.23199462890625 128.45799255371094 170.781005859375 133.31399536132812 169.7100067138672 138.25999450683594C169.04800415039062 141.84800720214844 169.822998046875 145.552001953125 171.8679962158203 148.57400512695312C173.27499389648438 150.7429962158203 175.41799926757812 152.33099365234375 177.90199279785156 153.04600524902344C180.40199279785156 153.65199279785156 183.04100036621094 153.0709991455078 185.05599975585938 151.4720001220703C188.36300659179688 149.15899658203125 189.75100708007812 146.3489990234375 189.21800231933594 143.04200744628906C188.52000427246094 140.2899932861328 187.3070068359375 137.69700622558594 185.64100646972656 135.3979949951172L196.21800231933594 128.0050048828125C199.33399963378906 132.83799743652344 201.14199829101562 137.23800659179688 201.64300537109375 141.2050018310547C202.60499572753906 148.7570037841797 199.3780059814453 155.11700439453125 191.96099853515625 160.28399658203125C186.1020050048828 164.38600158691406 180.30599975585938 166.0240020751953 174.5749969482422 165.19700622558594C168.843994140625 164.3699951171875 164.1060028076172 161.2899932861328 160.36099243164062 155.9550018310547C157.5449981689453 152.04100036621094 156.14500427246094 147.28500366210938 156.39100646972656 142.468994140625C156.80999755859375 138.14999389648438 157.85899353027344 133.91600036621094 159.5030059814453 129.9010009765625L161.69700622558594 123.76000213623047C163.07200622558594 119.91999816894531 163.95899963378906 117.21299743652344 164.3560028076172 115.63999938964844C164.7530059814453 114.08300018310547 164.8990020751953 112.4729995727539 164.78599548339844 110.87000274658203L140.62600708007812 127.77799987792969Z" class="" fill="#fff" fillOpacity="1"></path><path d="M198.58999633789062 333.59100341796875L313.5880126953125 333.59100341796875L349.0979919433594 224.2209930419922L256.0889892578125 156.6230010986328L163.0800018310547 224.2220001220703Z" class="" fill="#fff" fillOpacity="1"></path><path d="M287.8559875488281 238.5189971923828C286.15301513671875 236.57000732421875 283.6419982910156 235.52200317382812 281.0589904785156 235.68099975585938C277.0199890136719 235.68099975585938 274.27398681640625 237.18800354003906 272.8190002441406 240.2010040283203C271.7950134277344 242.86300659179688 271.28900146484375 245.69500732421875 271.3290100097656 248.5469970703125L258.4739990234375 248.5469970703125C258.6889953613281 242.8000030517578 259.7300109863281 238.1580047607422 261.5979919433594 234.6199951171875C265.1440124511719 227.87899780273438 271.44000244140625 224.50799560546875 280.48699951171875 224.50799560546875C287.6409912109375 224.50799560546875 293.3290100097656 226.4949951171875 297.54998779296875 230.47000122070312C301.77099609375 234.44500732421875 303.8500061035156 239.656005859375 303.7869873046875 246.10299682617188C303.84600830078125 250.92300415039062 302.2650146484375 255.6199951171875 299.3030090332031 259.4230041503906C296.5199890136719 262.7510070800781 293.2659912109375 265.6549987792969 289.6440124511719 268.0429992675781L284.32598876953125 271.81201171875C280.9949951171875 274.1969909667969 278.7179870605469 275.906005859375 277.4939880371094 276.9389953613281C276.2690124511719 277.99200439453125 275.22198486328125 279.23699951171875 274.3940124511719 280.6239929199219L303.8819885253906 280.6239929199219L303.8819885253906 292.3089904785156L257.67498779296875 292.3089904785156C257.7430114746094 287.71099853515625 258.8089904785156 283.1830139160156 260.79998779296875 279.0379943847656C262.6919860839844 274.5379943847656 267.1629943847656 269.76800537109375 274.2139892578125 264.7279968261719C278.42498779296875 261.90301513671875 282.4119873046875 258.75799560546875 286.1390075683594 255.32000732421875C288.7380065917969 252.76100158691406 290.2279968261719 249.28399658203125 290.28900146484375 245.63800048828125C290.3659973144531 243.0449981689453 289.50201416015625 240.51300048828125 287.8559875488281 238.50799560546875Z" class="" fill="#fff" fillOpacity="1"></path><path d="M208.24899291992188 236.70700073242188C211.1909942626953 236.64999389648438 214.125 236.37100219726562 217.02499389648438 235.8719940185547C219.50999450683594 235.375 221.7830047607422 234.12600708007812 223.53599548339844 232.2949981689453C224.77499389648438 230.91099548339844 225.66700744628906 229.25100708007812 226.13600158691406 227.4530029296875C226.41799926757812 226.5749969482422 226.58999633789062 225.66600036621094 226.6479949951172 224.74600219726562L237.73800659179688 224.74600219726562L237.73800659179688 292.2860107421875L224.1320037841797 292.2860107421875L224.1320037841797 245.73300170898438L208.25 245.73300170898438L208.25 236.69500732421875Z" class="" fill="#fff" fillOpacity="1"></path><path d="M196.46800231933594 352.6700134277344L142.03399658203125 427.7099914550781L256.0889892578125 464.67498779296875L370.1449890136719 427.7099914550781L315.71099853515625 352.6700134277344L196.46800231933594 352.6700134277344Z" class="" fill="#fff" fillOpacity="1"></path><path d="M273.7380065917969 436.4620056152344C269.9779968261719 441.27899169921875 264.1390075683594 443.6839904785156 256.22100830078125 443.6759948730469C247.71400451660156 443.6759948730469 241.44200134277344 440.1189880371094 237.4040069580078 433.0039978027344C234.26400756835938 427.4389953613281 232.69400024414062 420.2850036621094 232.69400024414062 411.5400085449219C232.64199829101562 407.3370056152344 232.86099243164062 403.135009765625 233.35000610351562 398.9599914550781C233.90199279785156 393.94000244140625 235.43800354003906 389.0769958496094 237.8699951171875 384.6510009765625C239.72900390625 381.46099853515625 242.3249969482422 378.7619934082031 245.4409942626953 376.781005859375C248.8070068359375 374.72698974609375 252.6959991455078 373.6910095214844 256.63800048828125 373.79998779296875C262.9100036621094 373.79998779296875 267.9100036621094 375.3900146484375 271.63800048828125 378.57000732421875C275.3819885253906 381.82000732421875 277.6499938964844 386.4490051269531 277.9230041503906 391.3999938964844L264.75799560546875 391.3999938964844C264.69000244140625 390.1130065917969 264.2550048828125 388.87200927734375 263.5060119628906 387.822998046875C262.0589904785156 385.6969909667969 259.5979919433594 384.4909973144531 257.031005859375 384.6510009765625C252.71499633789062 384.6510009765625 249.64300537109375 387.0719909667969 247.81399536132812 391.9129943847656C246.6060028076172 395.74700927734375 245.91600036621094 399.7250061035156 245.76300048828125 403.74200439453125C247.29600524902344 401.87200927734375 249.25999450683594 400.40301513671875 251.48699951171875 399.46099853515625C259.1789855957031 396.5660095214844 267.85400390625 398.4309997558594 273.677001953125 404.2309875488281C277.5780029296875 408.47198486328125 279.6440124511719 414.0820007324219 279.42498779296875 419.8399963378906C279.49798583984375 425.8580017089844 277.5069885253906 431.7200012207031 273.7850036621094 436.45001220703125Z" class="" fill="#fff" fillOpacity="1"></path><path d="M263.0060119628906 411.8500061035156C264.9289855957031 413.9490051269531 265.8909912109375 416.9700012207031 265.8909912109375 420.9129943847656C266.0299987792969 423.99700927734375 265.135986328125 427.03900146484375 263.35101318359375 429.5580139160156C261.72100830078125 431.74798583984375 259.1159973144531 432.99200439453125 256.38800048828125 432.885009765625C253.50599670410156 432.94500732421875 250.75599670410156 431.67401123046875 248.93499755859375 429.4389953613281C246.93499755859375 426.9230041503906 245.91799926757812 423.7650146484375 246.072998046875 420.55499267578125C246.072998046875 416.05499267578125 247.3769989013672 412.7959899902344 249.98399353027344 410.7770080566406C251.67799377441406 409.4320068359375 253.7830047607422 408.7080078125 255.9459991455078 408.72698974609375C258.6650085449219 408.66400146484375 261.27398681640625 409.802001953125 263.0769958496094 411.8380126953125Z" class="" fill="#fff" fillOpacity="1"></path><path d="M382.15301513671875 299.6549987792969L410.0320129394531 308.00201416015625L405.2619934082031 324.15899658203125Z" class="" fill="#fff" fillOpacity="1"></path><path d="M367.8429870605469 228.10899353027344L331.0329895019531 341.3890075683594L385.5159912109375 416.3819885253906L456 319.3659973144531L456 199.5030059814453Z" class="" fill="#fff" fillOpacity="1"></path><path d="M433.9159851074219 315.0610046386719L419.989013671875 310.89898681640625L412.3330078125 336.51300048828125L401.2200012207031 333.197998046875L369.02398681640625 297.67498779296875L373.29400634765625 283.3659973144531L413.7279968261719 295.4460144042969L415.9110107421875 288.1239929199219L425.86700439453125 291.093994140625L423.68499755859375 298.41400146484375L437.6130065917969 302.57598876953125Z" class="" fill="#fff" fillOpacity="1"></path><path d="M144.156005859375 228.10899353027344L56 199.49099731445312L56 319.42498779296875L126.48400115966797 416.4410095214844L180.96600341796875 341.4490051269531Z" class="" fill="#fff" fillOpacity="1"></path><path d="M72.54000091552734 286.239990234375L116.97000122070312 272.239990234375L112.19999694824219 257.09698486328125L120.82099914550781 254.3780059814453C121.76000213623047 257.1669921875 122.90899658203125 259.8819885253906 124.25599670410156 262.49798583984375C125.46700286865234 264.7149963378906 127.32599639892578 266.5090026855469 129.58599853515625 267.63800048828125C131.2790069580078 268.4049987792969 133.13099670410156 268.7560119628906 134.98699951171875 268.66400146484375C135.90699768066406 268.6700134277344 136.82400512695312 268.56201171875 137.71800231933594 268.3420104980469L141.0449981689453 278.9179992675781L76.65399932861328 299.19000244140625Z" class="" fill="#fff" fillOpacity="1"></path><path d="M91.01000213623047 344.83599853515625L86.91999816894531 331.86199951171875L131.35000610351562 317.8630065917969L126.58000183105469 302.718994140625L135.20199584960938 300.0010070800781C136.14100646972656 302.7900085449219 137.28900146484375 305.5039978027344 138.63600158691406 308.1210021972656C139.8459930419922 310.3389892578125 141.70599365234375 312.1319885253906 143.96600341796875 313.260986328125C145.65899658203125 314.02899169921875 147.51100158691406 314.3800048828125 149.3679962158203 314.2860107421875C150.28799438476562 314.2919921875 151.2050018310547 314.1839904785156 152.09800720214844 313.9639892578125L155.42599487304688 324.5409851074219Z" class="" fill="#fff" fillOpacity="1"></path></g></g></svg>