<svg xmlns="http://www.w3.org/2000/svg" viewBox="0 -0.5 32 32" shape-rendering="crispEdges">
<metadata>Made with Pixels to Svg https://codepen.io/shshaw/pen/XbxvNj</metadata>
<path stroke="#080000" d="M6 7h19M5 8h21M4 9h2M12 9h1M18 9h1M25 9h2M5 10h2M11 10h1M19 10h1M24 10h2M5 11h2M10 11h1M13 11h5M20 11h1M24 11h2M6 12h2M9 12h1M16 12h1M21 12h1M23 12h2M7 13h2M12 13h1M16 13h1M18 13h1M22 13h2M7 14h2M14 14h3M22 14h2M8 15h2M13 15h5M21 15h2M9 16h2M20 16h2M9 17h3M19 17h3M10 18h11M11 19h1M19 19h1M11 20h2M18 20h2M12 21h2M17 21h2M13 22h2M16 22h2M14 23h3M15 24h1" />
<path stroke="#fff300" d="M6 9h1M11 9h1M10 10h1M7 11h1M9 11h1M8 12h1" />
<path stroke="#ffff87" d="M7 9h4M7 10h3M8 11h1" />
<path stroke="#bbbbbb" d="M13 9h1M17 9h1M12 10h1M18 10h1M11 11h2M18 11h2M10 12h2M13 12h1M17 12h1M19 12h2M9 13h1M21 13h1M10 14h2M13 14h1M17 14h1M19 14h2M11 15h2M18 15h2M12 16h1M18 16h1M13 17h5" />
<path stroke="#ffffff" d="M14 9h3M13 10h5M10 13h1M13 13h1M17 13h1M20 13h1M13 16h5" />
<path stroke="#336b8b" d="M19 9h1M24 9h1M20 10h1M21 11h1M23 11h1M22 12h1" />
<path stroke="#6fc3ef" d="M20 9h4M21 10h3M22 11h1" />
<path stroke="#434343" d="M12 12h1M14 12h2M18 12h1M11 13h1M14 13h2M19 13h1M9 14h1M12 14h1M18 14h1M21 14h1M10 15h1M20 15h1M11 16h1M19 16h1M12 17h1M18 17h1" />
<path stroke="#9b0000" d="M12 19h1M18 19h1M13 20h1M17 20h1M14 21h1M16 21h1M15 22h1" />
<path stroke="#ff4b4b" d="M13 19h5M14 20h3M15 21h1" />
</svg>